<svg height='300px' width='300px'  fill="#000000" xmlns:dc="http://purl.org/dc/elements/1.1/" xmlns:cc="http://creativecommons.org/ns#" xmlns:rdf="http://www.w3.org/1999/02/22-rdf-syntax-ns#" xmlns:svg="http://www.w3.org/2000/svg" xmlns="http://www.w3.org/2000/svg" xmlns:sodipodi="http://sodipodi.sourceforge.net/DTD/sodipodi-0.dtd" xmlns:inkscape="http://www.inkscape.org/namespaces/inkscape" version="1.1" x="0px" y="0px" viewBox="0 0 80 80"><g transform="translate(0,-972.36218)"><path style="text-indent:0;text-transform:none;direction:ltr;block-progression:tb;baseline-shift:baseline;color:#000000;enable-background:accumulate;" d="m 28,985.36218 c -2.2091,0 -4,1.7909 -4,4 0,2.2092 1.7909,4 4,4 2.2091,0 4,-1.7908 4,-4 0,-2.2091 -1.7909,-4 -4,-4 z m 15,8 c -1.1046,0 -2,0.8954 -2,2 0,1.1046 0.8954,2 2,2 l 17,0 c 1.1046,0 2,-0.8954 2,-2 0,-1.1046 -0.8954,-2 -2,-2 l -17,0 z m -15,1 c -3.6923,0 -8,1.4 -8,7.00002 l 16,0 c 0,-5.60002 -4.3077,-7.00002 -8,-7.00002 z m -8,13.00002 c -1.1046,0 -2,0.8954 -2,2 0,1.1046 0.8954,2 2,2 l 40,0 c 1.1046,0 2,-0.8954 2,-2 0,-1.1046 -0.8954,-2 -2,-2 l -40,0 z m 0,14 c -1.1046,0 -2,0.8954 -2,2 0,1.1046 0.8954,2 2,2 l 40,0 c 1.1046,0 2,-0.8954 2,-2 0,-1.1046 -0.8954,-2 -2,-2 l -40,0 z m 0,14 c -1.1046,0 -2,0.8954 -2,2 0,1.1046 0.8954,2 2,2 l 40,0 c 1.1046,0 2,-0.8954 2,-2 0,-1.1046 -0.8954,-2 -2,-2 l -40,0 z" fill="#000000" fill-opacity="1" stroke="none" marker="none" visibility="visible" display="inline" overflow="visible"></path></g></svg>